<svg xmlns="http://www.w3.org/2000/svg" viewBox="0 0 38.51 38.5" id="whatsapp">
  <defs>
    <linearGradient id="a" x1="5.65" x2="32.85" y1="5.65" y2="32.85" gradientUnits="userSpaceOnUse">
      <stop offset="0" stop-color="#7eed91"></stop>
      <stop offset=".61" stop-color="#37cf60"></stop>
      <stop offset=".99" stop-color="#08bb40"></stop>
    </linearGradient>
  </defs>
  <g>
    <g>
      <path fill="url(#a)" d="M38.51,19.25v.03c0,.5-.02,1-.07,1.49-.36,4.69-2.44,8.93-5.59,12.08-3.18,3.18-7.45,5.25-12.19,5.59-.46.04-.94.06-1.41.06-4.1,0-7.9-1.29-11.03-3.49C3.26,31.51,0,25.75,0,19.25c0-5.29,2.17-10.11,5.65-13.6C9.14,2.16,13.95,0,19.25,0s10.11,2.16,13.6,5.65,5.66,8.31,5.66,13.6Z"></path>
      <path fill="#2dad40" d="M38.44,20.77c-.36,4.69-2.44,8.93-5.59,12.08-3.18,3.18-7.45,5.25-12.19,5.59l-12.83-7.88s-.25-.27-.21-.47l1.28-6.18c-.83-1.62-1.3-3.45-1.31-5.4-.02-6.39,5.01-11.7,11.4-12.01,3.54-.16,6.76,1.21,9.06,3.51,2.2,2.19,6.99,7.24,10.39,10.76Z"></path>
      <g>
        <path fill="#fff" d="M18.92,6.5c-6.38.3-11.42,5.62-11.4,12.01,0,1.95.48,3.78,1.3,5.41l-1.27,6.18c-.07.33.23.63.56.55l6.05-1.43c1.55.77,3.3,1.22,5.15,1.25,6.52.1,11.96-5.08,12.16-11.6.22-6.99-5.55-12.69-12.56-12.35h0ZM26.14,25.11c-1.77,1.77-4.13,2.75-6.64,2.75-1.47,0-2.87-.33-4.18-.98l-.84-.42-3.71.88.78-3.79-.42-.81c-.68-1.33-1.02-2.76-1.02-4.26,0-2.51.98-4.86,2.75-6.64,1.76-1.76,4.15-2.75,6.64-2.75s4.86.98,6.63,2.75c1.77,1.77,2.75,4.13,2.75,6.63s-.99,4.88-2.75,6.64h0Z"></path>
        <path fill="#fcfcfc" d="M25.32,21.07l-2.32-.67c-.3-.09-.63,0-.86.23l-.57.58c-.24.24-.6.32-.92.19-1.1-.44-3.41-2.5-4-3.53-.17-.3-.14-.67.07-.94l.5-.64c.19-.25.24-.59.11-.88l-.98-2.21c-.23-.53-.91-.68-1.35-.31-.65.55-1.42,1.38-1.51,2.3-.16,1.63.53,3.68,3.17,6.14,3.05,2.84,5.49,3.22,7.08,2.83.9-.22,1.62-1.09,2.08-1.81.31-.49.07-1.14-.49-1.3h0Z"></path>
      </g>
    </g>
  </g>
</svg>
